<svg version="1.1" xmlns="http://www.w3.org/2000/svg" style="display: block;" viewBox="0 0 2048 1365" width="768" height="512">
<defs>
	<linearGradient id="Gradient1" gradientUnits="userSpaceOnUse" x1="1419.08" y1="989.535" x2="1485.74" y2="918.898">
		<stop class="stop0" offset="0" stop-opacity="1" stop-color="rgb(204,203,200)"/>
		<stop class="stop1" offset="1" stop-opacity="1" stop-color="rgb(224,220,229)"/>
	</linearGradient>
</defs>
<path transform="translate(0,0)" fill="rgb(51,153,0)" d="M 290.848 1044.24 L 1756.86 1044.24 C 1759.19 1049.06 1759.1 1071.94 1756.86 1075.98 C 1749.1 1077.92 1690.54 1075.97 1678.14 1075.97 L 290.848 1075.98 C 291.762 1065.26 291.484 1054.95 290.848 1044.24 z"/>
<path transform="translate(0,0)" fill="rgb(203,202,199)" d="M 290.848 439.867 C 301.107 439.998 311.383 439.797 321.647 439.867 L 321.647 572.069 L 414.174 572.121 C 426.925 572.124 445.641 574.071 457.561 571.196 L 458.967 568.764 L 458.915 683.321 C 458.897 713.428 449.104 742.428 479.558 759.683 C 483.214 765.586 486.701 771.56 492.214 775.956 C 507.446 776.239 522.687 776.049 537.921 775.956 C 537.284 812.631 537.87 849.404 537.921 886.09 L 537.845 961.84 C 537.82 981.559 535.388 1000.58 543.566 1018.99 C 467.144 1014.2 451.039 964.604 451.767 896.922 C 375.211 897.399 344.549 870.315 330.4 795.076 L 290.848 580.111 C 290.103 533.38 290.921 486.605 290.848 439.867 z"/>
<path transform="translate(0,0)" fill="rgb(204,0,0)" d="M 492.214 775.956 C 507.446 776.239 522.687 776.049 537.921 775.956 C 537.284 812.631 537.87 849.404 537.921 886.09 C 520.436 885.655 458.786 890.441 447.714 880.308 C 431.364 865.347 435.516 794.566 447.819 782.209 C 457.326 772.66 479.617 776.063 492.214 775.956 z"/>
<path transform="translate(0,0)" fill="rgb(203,202,199)" d="M 458.967 540.318 C 457.815 532.745 458.736 524.698 458.817 517.042 L 458.952 390.959 C 458.959 373.357 457.621 354.512 460.608 337.153 C 471.302 275.018 528.551 275.147 575.748 275.133 L 1577.97 275.138 C 1634.36 275.096 1721.43 262.416 1731.57 340.995 C 1733.31 354.552 1732.84 368.345 1732.84 381.985 L 1732.8 906.767 C 1732.8 920.934 1733.4 935.371 1732 949.474 C 1725.39 1016.32 1663.53 1019.13 1613.33 1019.06 L 1535.82 1018.99 C 1535.54 1029.71 1514.93 1039.35 1506.31 1040.36 C 1487.38 1042.6 1475.83 1029.77 1462.24 1019.38 L 1461.72 1018.99 C 1455.19 1017.49 1447.34 1018.64 1440.68 1018.99 C 1437.33 1039.33 1388.77 1051.92 1364.75 1018.99 L 1201.83 1018.97 C 1175 1018.97 1147.75 1020.14 1120.98 1018.99 C 1098.31 1046.08 1067.68 1047 1045.8 1018.99 C 1039.75 1018.59 1033.43 1018.98 1027.36 1018.99 C 1007.76 1047.15 973.198 1044.66 952.357 1018.99 L 793.959 1019 C 769.063 1018.99 743.209 1017.22 718.463 1018.99 C 693.313 1046.98 667.034 1044.32 641.353 1018.99 C 634.436 1017.55 627.185 1018.24 620.227 1018.99 C 594.348 1042.14 567.841 1049.68 543.566 1018.99 C 535.388 1000.58 537.82 981.559 537.845 961.84 L 537.921 886.09 C 537.87 849.404 537.284 812.631 537.921 775.956 C 522.687 776.049 507.446 776.239 492.214 775.956 C 486.701 771.56 483.214 765.586 479.558 759.683 C 449.104 742.428 458.897 713.428 458.915 683.321 L 458.967 568.764 C 459.05 559.369 457.541 549.613 458.967 540.318 z M 523.015 526.108 C 497.628 525.221 478.061 520.556 458.967 540.318 C 457.541 549.613 459.05 559.369 458.967 568.764 L 458.915 683.321 C 458.897 713.428 449.104 742.428 479.558 759.683 C 483.214 765.586 486.701 771.56 492.214 775.956 C 507.446 776.239 522.687 776.049 537.921 775.956 C 537.284 812.631 537.87 849.404 537.921 886.09 L 537.845 961.84 C 537.82 981.559 535.388 1000.58 543.566 1018.99 C 567.841 1049.68 594.348 1042.14 620.227 1018.99 C 627.185 1018.24 634.436 1017.55 641.353 1018.99 C 667.034 1044.32 693.313 1046.98 718.463 1018.99 C 725.714 1002.08 722.758 981.662 722.748 963.774 L 722.653 886.09 C 719.597 855.884 722.229 805.106 722.653 773.831 C 738.45 777.356 753.173 776.787 769.31 775.956 C 774.955 770.697 777.809 767.164 779.877 759.683 C 780.455 732.963 770.524 696.207 766.007 668.777 L 751.925 583.605 C 748.796 564.375 747.811 544.222 740.099 526.108 C 710.532 487.636 675.344 499.933 629.604 499.929 C 589.75 499.926 549.688 489.488 523.015 526.108 z"/>
<path transform="translate(0,0)" fill="rgb(204,0,0)" d="M 740.099 526.108 C 817.447 525.56 802.865 526.532 802.715 599.05 L 802.742 725.211 C 802.576 745.081 798.901 753.344 779.877 759.683 C 780.455 732.963 770.524 696.207 766.007 668.777 L 751.925 583.605 C 748.796 564.375 747.811 544.222 740.099 526.108 z"/>
<path transform="translate(0,0)" fill="rgb(204,0,0)" d="M 1145.75 526.108 C 1225.64 525.521 1212.07 526.317 1212.09 600.141 C 1212.09 627.383 1219.95 737.464 1202.62 753.871 C 1198.63 757.652 1191.06 763.014 1185.46 759.683 C 1188.38 741.722 1180.97 719.61 1177.82 702.009 L 1165.78 632.477 C 1160.21 600.304 1154.82 556.137 1145.75 526.108 z"/>
<path transform="translate(0,0)" fill="rgb(204,0,0)" d="M 894.195 759.683 C 854.779 759.374 862.822 728.218 862.768 700.32 C 862.69 659.786 862.648 619.32 864.407 578.829 C 867.085 517.183 860.011 526.884 928.392 526.108 C 918.991 553.186 891.495 745.551 894.195 759.683 z"/>
<path transform="translate(0,0)" fill="rgb(204,0,0)" d="M 722.653 773.831 C 738.45 777.356 753.173 776.787 769.31 775.956 C 782.379 776.021 803.531 771.511 813.562 781.537 C 827.663 795.631 833.546 876.242 800.717 884.575 C 784.365 888.726 741.945 886.003 722.653 886.09 C 719.597 855.884 722.229 805.106 722.653 773.831 z"/>
<path transform="translate(0,0)" fill="rgb(204,0,0)" d="M 906.943 775.956 L 947.315 775.956 L 947.315 886.09 C 867.139 881.144 841.296 911.564 844.981 805.795 C 846.227 770.008 880.461 774.593 906.943 775.956 z"/>
<path transform="translate(0,0)" fill="rgb(204,0,0)" d="M 1126.09 775.956 L 1173.08 775.956 C 1239.72 778.701 1237.14 787.398 1233.19 853.952 C 1230.35 901.857 1160.47 885.954 1126.09 886.09 L 1126.09 775.956 z"/>
<path transform="translate(0,0)" fill="rgb(0,102,204)" d="M 1035.88 334.358 C 1135.02 337.265 1144.34 482.046 1039.85 491.76 C 940.031 493.297 929.382 341.752 1035.88 334.358 z"/>
<path transform="translate(0,0)" fill="rgb(51,153,0)" d="M 626.377 334.358 C 718.506 322.614 751.624 470.173 641.353 491.76 C 525.223 486.319 533.584 343.073 626.377 334.358 z"/>
<path transform="translate(0,0)" fill="rgb(255,204,0)" d="M 1444.58 334.358 C 1553.85 322.665 1559.54 492.328 1455.97 491.76 C 1346.68 498.093 1345.64 337.895 1444.58 334.358 z"/>
<path transform="translate(0,0)" fill="rgb(204,0,0)" d="M 1561.94 526.108 C 1577.22 525.978 1621.2 519.096 1626.13 540.318 C 1629.81 549.566 1626.22 563.576 1626.16 573.472 C 1626.03 594.45 1628.11 735.935 1624.64 744.268 C 1620.78 753.527 1609.64 759.418 1600.41 762.077 C 1600.41 767.17 1596.99 772.805 1593.07 775.956 C 1650.47 775.186 1645.62 791.064 1645.15 845.054 C 1644.63 904.092 1588.55 886.064 1543.56 886.09 C 1546.9 868.584 1543.97 796.122 1543.56 775.956 C 1562.69 777.656 1594.71 781.744 1598.93 755.961 C 1599.53 752.317 1571.04 538.375 1561.94 526.108 z"/>
<path transform="translate(0,0)" fill="rgb(204,0,0)" d="M 1304.79 775.956 C 1292.16 757.078 1274.62 757.819 1274.07 731.155 C 1273.19 688.953 1273.96 646.566 1273.96 604.35 C 1273.96 529.848 1257.48 525.456 1336.24 526.108 C 1330.62 541.776 1329.32 560.578 1326.7 577 L 1303.66 724.01 C 1294.38 785.009 1305.41 775.861 1357.36 775.956 L 1357.4 850.335 C 1357.42 862.093 1358.33 874.433 1357.36 886.09 C 1278.93 884.585 1251.09 908.795 1251.74 816.957 C 1252.01 777.788 1271.23 775.5 1304.79 775.956 z"/>
<path transform="translate(0,0)" fill="rgb(0,102,204)" d="M 928.392 526.108 C 946.451 497.858 965.957 500.078 995.79 500.026 L 1048.6 499.982 C 1089.16 499.98 1119.09 489.378 1145.75 526.108 C 1154.82 556.137 1160.21 600.304 1165.78 632.477 L 1177.82 702.009 C 1180.97 719.61 1188.38 741.722 1185.46 759.683 C 1182.43 767.17 1179.47 771.02 1173.08 775.956 L 1126.09 775.956 L 1126.09 886.09 L 1126.17 961.703 C 1126.19 980.967 1128.86 1000.86 1120.98 1018.99 C 1098.31 1046.08 1067.68 1047 1045.8 1018.99 C 1039.75 1018.59 1033.43 1018.98 1027.36 1018.99 C 1007.76 1047.15 973.198 1044.66 952.357 1018.99 C 944.374 1001.3 947.204 980.604 947.223 961.746 L 947.315 886.09 L 947.315 775.956 L 906.943 775.956 C 901.487 771.094 897.101 766.468 894.195 759.683 C 891.495 745.551 918.991 553.186 928.392 526.108 z"/>
<path transform="translate(0,0)" fill="rgb(203,202,199)" d="M 1031.88 827.828 L 1039.85 827.828 C 1039.73 833.483 1039.51 839.155 1039.85 844.805 C 1034.06 841.166 1032.91 838.608 1031.88 831.669 L 1031.88 827.828 z"/>
<path transform="translate(0,0)" fill="rgb(203,202,199)" d="M 1031.88 886.09 L 1039.85 886.09 L 1039.77 957.537 C 1039.73 978.3 1037.25 999.522 1045.8 1018.99 C 1039.75 1018.59 1033.43 1018.98 1027.36 1018.99 C 1034.16 1000.17 1032.02 980.044 1032 960.374 L 1031.88 886.09 z"/>
<path transform="translate(0,0)" fill="rgb(255,204,0)" d="M 1336.24 526.108 C 1364.4 486.994 1408.98 500.563 1453 500.433 C 1477.48 500.361 1553.62 490.425 1561.94 526.108 C 1571.04 538.375 1599.53 752.317 1598.93 755.961 C 1594.71 781.744 1562.69 777.656 1543.56 775.956 C 1543.97 796.122 1546.9 868.584 1543.56 886.09 L 1543.63 956.358 C 1543.62 971.574 1548.26 1007.5 1535.82 1018.99 C 1535.54 1029.71 1514.93 1039.35 1506.31 1040.36 C 1487.38 1042.6 1475.83 1029.77 1462.24 1019.38 L 1461.72 1018.99 C 1455.19 1017.49 1447.34 1018.64 1440.68 1018.99 C 1437.33 1039.33 1388.77 1051.92 1364.75 1018.99 C 1348 978.047 1364.63 904.246 1357.36 886.09 C 1358.33 874.433 1357.42 862.093 1357.4 850.335 L 1357.36 775.956 C 1305.41 775.861 1294.38 785.009 1303.66 724.01 L 1326.7 577 C 1329.32 560.578 1330.62 541.776 1336.24 526.108 z"/>
<path transform="translate(0,0)" fill="rgb(157,143,12)" d="M 1449.13 775.956 C 1457.49 783.057 1458.58 838.348 1455.97 844.805 L 1455.71 841.188 C 1453.47 839.26 1451.93 839.426 1449.13 839.07 C 1451.53 832.586 1452.27 786.599 1449.13 775.956 z"/>
<path transform="translate(0,0)" fill="rgb(51,153,0)" d="M 1449.13 839.07 C 1451.93 839.426 1453.47 839.26 1455.71 841.188 L 1455.97 844.805 C 1457.88 849.187 1456.79 875.692 1457.43 883.228 L 1455.97 886.09 L 1449.13 886.09 C 1449.66 879.072 1451.22 843.596 1449.13 839.07 z"/>
<path transform="translate(0,0)" fill="url(#Gradient1)" d="M 1455.97 886.09 C 1459.48 891.588 1455.77 910.842 1455.76 917.975 L 1455.99 963.747 C 1456 973.454 1461.79 1018.67 1461.72 1018.99 C 1455.19 1017.49 1447.34 1018.64 1440.68 1018.99 C 1454.96 1002.99 1448.76 912.164 1449.13 886.09 L 1455.97 886.09 z"/>
<path transform="translate(0,0)" fill="rgb(51,153,0)" d="M 523.015 526.108 C 549.688 489.488 589.75 499.926 629.604 499.929 C 675.344 499.933 710.532 487.636 740.099 526.108 C 747.811 544.222 748.796 564.375 751.925 583.605 L 766.007 668.777 C 770.524 696.207 780.455 732.963 779.877 759.683 C 777.809 767.164 774.955 770.697 769.31 775.956 C 753.173 776.787 738.45 777.356 722.653 773.831 C 722.229 805.106 719.597 855.884 722.653 886.09 L 722.748 963.774 C 722.758 981.662 725.714 1002.08 718.463 1018.99 C 693.313 1046.98 667.034 1044.32 641.353 1018.99 C 634.436 1017.55 627.185 1018.24 620.227 1018.99 C 594.348 1042.14 567.841 1049.68 543.566 1018.99 C 535.388 1000.58 537.82 981.559 537.845 961.84 L 537.921 886.09 C 537.87 849.404 537.284 812.631 537.921 775.956 C 522.687 776.049 507.446 776.239 492.214 775.956 C 486.701 771.56 483.214 765.586 479.558 759.683 C 449.104 742.428 458.897 713.428 458.915 683.321 L 458.967 568.764 C 459.05 559.369 457.541 549.613 458.967 540.318 C 478.061 520.556 497.628 525.221 523.015 526.108 z M 626.377 990.321 C 626.021 1000.89 625.089 1009.5 620.227 1018.99 C 627.185 1018.24 634.436 1017.55 641.353 1018.99 C 637.873 1009.44 635.765 1000.54 635.12 990.321 C 630.623 982.322 629.677 980.419 626.377 990.321 z M 626.377 844.805 L 635.12 844.805 C 635.256 839.735 636.146 833.714 630.059 832.264 L 627.796 833.828 C 625.531 837.152 626.216 840.954 626.377 844.805 z"/>
<path transform="translate(0,0)" fill="rgb(11,99,5)" d="M 626.377 844.805 L 635.12 844.805 C 635.225 858.522 635.772 872.391 635.12 886.09 L 626.377 886.09 C 627.519 872.408 626.749 858.514 626.377 844.805 z"/>
<path transform="translate(0,0)" fill="rgb(203,202,199)" d="M 635.12 886.09 C 636.348 898.742 635.285 912.108 635.202 924.849 L 635.12 990.321 C 630.623 982.322 629.677 980.419 626.377 990.321 C 625.816 958.963 624.194 916.889 626.377 886.09 L 635.12 886.09 z"/>
<path transform="translate(0,0)" fill="rgb(204,0,0)" d="M 458.967 540.318 C 478.061 520.556 497.628 525.221 523.015 526.108 C 507.014 550.321 507.667 586.304 502.728 614.046 C 495.838 652.751 480.72 721.923 479.558 759.683 C 449.104 742.428 458.897 713.428 458.915 683.321 L 458.967 568.764 C 459.05 559.369 457.541 549.613 458.967 540.318 z"/>
</svg>