<svg version="1.1" xmlns="http://www.w3.org/2000/svg" style="display: block;" viewBox="0 0 2048 1152" width="910" height="512">
<path transform="translate(0,0)" fill="rgb(54,162,235)" d="M 1265.67 209.498 C 1325.44 204.665 1342.42 287.783 1286.34 305.932 C 1292.41 316.738 1288.49 334.505 1275.19 337.028 C 1254.35 355.15 1251.1 307.105 1250.63 305.932 C 1248.18 303.019 1244.64 300.986 1241.58 298.734 C 1203.09 270.377 1221.8 216.428 1265.67 209.498 z M 1265.67 241.495 C 1245.36 255.434 1255.55 282.407 1275.19 276.505 C 1298.25 269.783 1290.45 238.125 1265.67 241.495 z"/>
<path transform="translate(0,0)" fill="rgb(255,99,132)" d="M 506.375 161.5 C 611.587 161.24 617.3 292.22 524.383 310.044 C 414.824 303.171 416.7 180.567 506.375 161.5 z"/>
<path transform="translate(0,0)" fill="rgb(255,205,86)" d="M 1523.26 161.5 C 1626.35 156.022 1630.37 308.161 1531.75 310.044 C 1441.53 314.566 1420.68 175.347 1523.26 161.5 z"/>
<path transform="translate(0,0)" fill="rgb(75,192,192)" d="M 1024.16 161.5 C 1110.74 153.547 1129.79 306.236 1024.16 310.044 L 1022.33 310.07 C 926.052 311.188 922.2 161.471 1024.16 161.5 z"/>
<path transform="translate(0,0)" fill="rgb(255,99,132)" d="M 263.937 667.308 C 217.745 655.249 261.484 624.549 274.848 609.729 C 297.061 585.098 317.988 556.621 334.986 528.204 C 381.525 450.4 351.386 335.271 485.043 337.028 C 487.813 384.695 545.064 384.279 550.135 337.028 C 639.193 335.225 656.995 392.241 678.597 467.542 C 697.814 534.527 727.388 566.08 772.73 619.979 C 780.724 630.101 792.247 634.916 797.687 647.394 C 769.979 681.194 754.124 656.804 731.527 633.271 C 670.143 569.345 646.726 515.772 612.575 437.634 C 606.732 459.887 594.932 486.306 591.62 507.619 C 587.615 533.397 610.454 558.952 621.454 580.824 C 683.258 703.716 601.579 877.879 538.079 985.679 C 535.016 967.311 533.924 948.331 532.099 929.794 L 522.857 839.111 C 521.088 822.008 520.817 802.178 516.087 785.67 C 506.93 848.571 500.482 921.969 495.082 985.679 C 431.518 873.212 346.767 699.529 416.78 573.507 C 451.454 511.096 451.249 531.828 429.782 465.287 C 426.86 456.23 424.839 446.924 422.814 437.634 C 406.851 473.964 393.577 514.869 373.765 548.777 C 357.838 576.038 292.284 659.893 263.937 667.308 z"/>
<path transform="translate(0,0)" fill="rgb(255,205,86)" d="M 1560.09 335.213 C 1637.24 332.129 1659.85 373.117 1680.12 437.142 C 1707.86 524.76 1710.95 535.671 1772.43 609.006 C 1781.68 620.043 1801.61 627.237 1802.01 643.144 C 1802.26 652.998 1793.05 663.512 1782.93 663.388 C 1753.99 663.033 1682.92 563.445 1669.33 540.127 C 1658.59 521.685 1631.53 449.157 1619.53 439.963 C 1622.67 451.682 1607.93 507.466 1600.18 517.635 C 1608.11 525.539 1624.8 580.13 1630.14 594.068 C 1638.42 615.714 1710.12 795.87 1709.88 803.906 C 1709.68 810.608 1704.22 816.765 1698.5 819.866 C 1680.42 821.09 1662.07 819.41 1643.94 819.866 C 1644.86 828.478 1570.89 968.261 1548.56 982.689 C 1554.63 970.966 1549.79 829.573 1545.42 819.866 L 1510.51 819.866 C 1512.05 824.323 1510.4 937.656 1510.57 954.536 C 1510.66 964.596 1513.84 976.084 1510.51 985.679 C 1510.29 984.853 1462.53 910.998 1457.64 902.272 C 1453.07 894.105 1416.06 820.116 1415.77 819.866 C 1329.94 820.514 1342.14 817.188 1368.28 749.714 C 1379.15 721.647 1458.65 522.419 1455.97 513.907 C 1456.02 513.694 1440.53 442.99 1436.31 437.634 C 1435.96 440.701 1397.02 525.017 1393.91 531.021 C 1383.8 550.552 1322.25 643.867 1303.86 647.394 C 1307.8 636.304 1287.06 625.203 1279.64 619.979 C 1315.24 572.989 1347.11 538.658 1364.01 480.385 C 1384.94 408.198 1403.13 326.564 1498.21 335.213 C 1500.24 338.666 1500 342.561 1500.76 346.36 C 1510.22 393.951 1576.57 361.395 1560.09 335.213 z"/>
<path transform="translate(0,0)" fill="rgb(54,162,235)" d="M 1058.47 337.028 C 1153.45 334.441 1167.97 409.112 1190.69 484.755 C 1206.13 536.17 1225.87 555.051 1260.31 596.946 C 1265.02 602.682 1276.82 614.212 1279.64 619.979 C 1287.06 625.203 1307.8 636.304 1303.86 647.394 C 1301.24 659.507 1285.36 665.462 1274.53 662.487 C 1247.11 654.95 1181.97 568.155 1167.4 541.713 C 1149.25 508.758 1136.9 472.688 1118.26 439.963 C 1114.36 462.48 1098.65 501.527 1099.63 518.167 C 1100.69 536.317 1162.23 681.956 1171.56 704.854 C 1177.94 720.511 1208.48 785.299 1207.49 797.681 C 1204.83 806.836 1147.79 852.203 1137.78 857.751 C 1128.5 862.885 1113.38 867.269 1107.72 876.281 C 1086.62 912.604 1067.42 950.321 1044.78 985.679 C 1044.23 954.437 1040 923.305 1038.77 892.051 C 1037.23 883.131 1011.1 887.248 1004.06 887.38 C 1006.32 920.203 1001.23 952.9 1004.06 985.679 C 977.504 952.294 963.136 910.568 938.04 876.281 C 930.475 865.229 900.805 854.621 887.817 844.967 C 869.497 831.348 853.729 815.246 839.242 797.681 L 905.453 629.944 C 912.474 612.177 948.385 528.749 948.665 516.42 C 948.989 502.15 933.194 461.528 929.246 439.963 C 880.051 537.149 876.782 559.755 797.687 647.394 C 792.247 634.916 780.724 630.101 772.73 619.979 C 793.119 583.033 823.96 552.246 844.539 514.938 C 887.349 437.323 866.499 333.336 989.548 337.028 C 994.638 382.906 1054.91 382.648 1058.47 337.028 z"/>
</svg>